<svg xmlns="http://www.w3.org/2000/svg" xmlns:xlink="http://www.w3.org/1999/xlink" width="70" zoomAndPan="magnify" viewBox="0 0 52.5 30.000001" height="40" preserveAspectRatio="xMidYMid meet" version="1.0"><defs><g/><clipPath id="c9413c6a13"><path d="M 0.605469 19 L 7 19 L 7 26 L 0.605469 26 Z M 0.605469 19 " clip-rule="nonzero"/></clipPath></defs><g fill="#0a57a1" fill-opacity="1"><g transform="translate(0.604838, 15.770958)"><g><path d="M 8.28125 -9.4375 C 8.25 -9.882812 8.082031 -10.234375 7.78125 -10.484375 C 7.488281 -10.734375 7.039062 -10.859375 6.4375 -10.859375 C 6.050781 -10.859375 5.734375 -10.8125 5.484375 -10.71875 C 5.242188 -10.625 5.066406 -10.5 4.953125 -10.34375 C 4.835938 -10.1875 4.773438 -10.007812 4.765625 -9.8125 C 4.765625 -9.644531 4.796875 -9.492188 4.859375 -9.359375 C 4.929688 -9.234375 5.039062 -9.117188 5.1875 -9.015625 C 5.34375 -8.910156 5.539062 -8.8125 5.78125 -8.71875 C 6.019531 -8.632812 6.300781 -8.5625 6.625 -8.5 L 7.75 -8.25 C 8.507812 -8.09375 9.160156 -7.878906 9.703125 -7.609375 C 10.242188 -7.347656 10.6875 -7.039062 11.03125 -6.6875 C 11.375 -6.332031 11.625 -5.929688 11.78125 -5.484375 C 11.945312 -5.046875 12.03125 -4.566406 12.03125 -4.046875 C 12.03125 -3.140625 11.804688 -2.375 11.359375 -1.75 C 10.910156 -1.125 10.269531 -0.648438 9.4375 -0.328125 C 8.613281 -0.00390625 7.625 0.15625 6.46875 0.15625 C 5.269531 0.15625 4.226562 -0.015625 3.34375 -0.359375 C 2.457031 -0.710938 1.769531 -1.257812 1.28125 -2 C 0.789062 -2.738281 0.539062 -3.679688 0.53125 -4.828125 L 4.078125 -4.828125 C 4.097656 -4.410156 4.203125 -4.054688 4.390625 -3.765625 C 4.578125 -3.484375 4.84375 -3.265625 5.1875 -3.109375 C 5.53125 -2.960938 5.9375 -2.890625 6.40625 -2.890625 C 6.800781 -2.890625 7.132812 -2.9375 7.40625 -3.03125 C 7.675781 -3.132812 7.878906 -3.273438 8.015625 -3.453125 C 8.148438 -3.628906 8.222656 -3.828125 8.234375 -4.046875 C 8.222656 -4.253906 8.148438 -4.4375 8.015625 -4.59375 C 7.890625 -4.757812 7.675781 -4.90625 7.375 -5.03125 C 7.082031 -5.15625 6.679688 -5.273438 6.171875 -5.390625 L 4.796875 -5.6875 C 3.578125 -5.945312 2.617188 -6.382812 1.921875 -7 C 1.222656 -7.625 0.878906 -8.472656 0.890625 -9.546875 C 0.878906 -10.421875 1.109375 -11.179688 1.578125 -11.828125 C 2.054688 -12.484375 2.710938 -12.992188 3.546875 -13.359375 C 4.390625 -13.734375 5.351562 -13.921875 6.4375 -13.921875 C 7.539062 -13.921875 8.492188 -13.734375 9.296875 -13.359375 C 10.109375 -12.984375 10.734375 -12.457031 11.171875 -11.78125 C 11.617188 -11.113281 11.84375 -10.332031 11.84375 -9.4375 Z M 8.28125 -9.4375 "/></g></g></g><g fill="#0a57a1" fill-opacity="1"><g transform="translate(13.176608, 15.770958)"><g><path d="M 0.515625 -10.71875 L 0.515625 -13.734375 L 12.4375 -13.734375 L 12.4375 -10.71875 L 8.3125 -10.71875 L 8.3125 0 L 4.640625 0 L 4.640625 -10.71875 Z M 0.515625 -10.71875 "/></g></g></g><g fill="#0a57a1" fill-opacity="1"><g transform="translate(26.123652, 15.770958)"><g><path d="M 0.890625 0 L 0.890625 -13.734375 L 10.78125 -13.734375 L 10.78125 -10.71875 L 4.609375 -10.71875 L 4.609375 -8.359375 L 10.265625 -8.359375 L 10.265625 -5.359375 L 4.609375 -5.359375 L 4.609375 -3 L 10.75 -3 L 10.75 0 Z M 0.890625 0 "/></g></g></g><g fill="#0a57a1" fill-opacity="1"><g transform="translate(37.864449, 15.770958)"><g><path d="M 0.890625 0 L 0.890625 -13.734375 L 6.8125 -13.734375 C 7.832031 -13.734375 8.722656 -13.53125 9.484375 -13.125 C 10.242188 -12.71875 10.835938 -12.148438 11.265625 -11.421875 C 11.691406 -10.691406 11.90625 -9.84375 11.90625 -8.875 C 11.90625 -7.894531 11.6875 -7.039062 11.25 -6.3125 C 10.8125 -5.59375 10.203125 -5.039062 9.421875 -4.65625 C 8.640625 -4.269531 7.722656 -4.078125 6.671875 -4.078125 L 3.140625 -4.078125 L 3.140625 -6.96875 L 5.921875 -6.96875 C 6.359375 -6.96875 6.734375 -7.046875 7.046875 -7.203125 C 7.359375 -7.359375 7.597656 -7.578125 7.765625 -7.859375 C 7.929688 -8.148438 8.015625 -8.488281 8.015625 -8.875 C 8.015625 -9.269531 7.929688 -9.601562 7.765625 -9.875 C 7.597656 -10.15625 7.359375 -10.367188 7.046875 -10.515625 C 6.734375 -10.671875 6.359375 -10.75 5.921875 -10.75 L 4.609375 -10.75 L 4.609375 0 Z M 0.890625 0 "/></g></g></g><g clip-path="url(#c9413c6a13)"><g fill="#000000" fill-opacity="1"><g transform="translate(0.604838, 25.448391)"><g><path d="M 3.734375 -4.265625 C 3.722656 -4.460938 3.648438 -4.617188 3.515625 -4.734375 C 3.378906 -4.847656 3.175781 -4.90625 2.90625 -4.90625 C 2.726562 -4.90625 2.582031 -4.882812 2.46875 -4.84375 C 2.363281 -4.800781 2.285156 -4.742188 2.234375 -4.671875 C 2.179688 -4.597656 2.15625 -4.515625 2.15625 -4.421875 C 2.144531 -4.347656 2.15625 -4.28125 2.1875 -4.21875 C 2.21875 -4.164062 2.269531 -4.113281 2.34375 -4.0625 C 2.414062 -4.019531 2.503906 -3.976562 2.609375 -3.9375 C 2.710938 -3.894531 2.835938 -3.859375 2.984375 -3.828125 L 3.5 -3.71875 C 3.84375 -3.644531 4.132812 -3.550781 4.375 -3.4375 C 4.613281 -3.320312 4.8125 -3.179688 4.96875 -3.015625 C 5.125 -2.859375 5.238281 -2.679688 5.3125 -2.484375 C 5.382812 -2.285156 5.425781 -2.066406 5.4375 -1.828125 C 5.425781 -1.421875 5.320312 -1.078125 5.125 -0.796875 C 4.925781 -0.515625 4.640625 -0.296875 4.265625 -0.140625 C 3.890625 0.00390625 3.441406 0.078125 2.921875 0.078125 C 2.378906 0.078125 1.90625 0 1.5 -0.15625 C 1.101562 -0.320312 0.796875 -0.570312 0.578125 -0.90625 C 0.359375 -1.238281 0.242188 -1.660156 0.234375 -2.171875 L 1.84375 -2.171875 C 1.851562 -1.984375 1.898438 -1.820312 1.984375 -1.6875 C 2.066406 -1.5625 2.1875 -1.46875 2.34375 -1.40625 C 2.5 -1.34375 2.679688 -1.3125 2.890625 -1.3125 C 3.066406 -1.3125 3.210938 -1.332031 3.328125 -1.375 C 3.453125 -1.414062 3.546875 -1.472656 3.609375 -1.546875 C 3.671875 -1.628906 3.707031 -1.722656 3.71875 -1.828125 C 3.707031 -1.921875 3.671875 -2.003906 3.609375 -2.078125 C 3.554688 -2.148438 3.460938 -2.210938 3.328125 -2.265625 C 3.191406 -2.328125 3.007812 -2.382812 2.78125 -2.4375 L 2.171875 -2.5625 C 1.617188 -2.6875 1.179688 -2.882812 0.859375 -3.15625 C 0.546875 -3.4375 0.394531 -3.820312 0.40625 -4.3125 C 0.394531 -4.695312 0.492188 -5.035156 0.703125 -5.328125 C 0.921875 -5.628906 1.21875 -5.863281 1.59375 -6.03125 C 1.976562 -6.195312 2.414062 -6.28125 2.90625 -6.28125 C 3.40625 -6.28125 3.835938 -6.195312 4.203125 -6.03125 C 4.566406 -5.863281 4.847656 -5.625 5.046875 -5.3125 C 5.242188 -5.007812 5.34375 -4.660156 5.34375 -4.265625 Z M 3.734375 -4.265625 "/></g></g></g></g><g fill="#000000" fill-opacity="1"><g transform="translate(6.278075, 25.448391)"><g><path d="M 6.40625 -3.09375 C 6.40625 -2.40625 6.269531 -1.820312 6 -1.34375 C 5.726562 -0.875 5.363281 -0.519531 4.90625 -0.28125 C 4.457031 -0.0390625 3.953125 0.078125 3.390625 0.078125 C 2.828125 0.078125 2.316406 -0.0390625 1.859375 -0.28125 C 1.398438 -0.53125 1.035156 -0.890625 0.765625 -1.359375 C 0.503906 -1.828125 0.375 -2.40625 0.375 -3.09375 C 0.375 -3.78125 0.503906 -4.359375 0.765625 -4.828125 C 1.035156 -5.304688 1.398438 -5.664062 1.859375 -5.90625 C 2.316406 -6.15625 2.828125 -6.28125 3.390625 -6.28125 C 3.953125 -6.28125 4.457031 -6.15625 4.90625 -5.90625 C 5.363281 -5.664062 5.726562 -5.304688 6 -4.828125 C 6.269531 -4.359375 6.40625 -3.78125 6.40625 -3.09375 Z M 4.671875 -3.09375 C 4.671875 -3.46875 4.617188 -3.78125 4.515625 -4.03125 C 4.421875 -4.289062 4.273438 -4.484375 4.078125 -4.609375 C 3.890625 -4.742188 3.660156 -4.8125 3.390625 -4.8125 C 3.109375 -4.8125 2.867188 -4.742188 2.671875 -4.609375 C 2.484375 -4.484375 2.34375 -4.289062 2.25 -4.03125 C 2.15625 -3.78125 2.109375 -3.46875 2.109375 -3.09375 C 2.109375 -2.726562 2.15625 -2.414062 2.25 -2.15625 C 2.34375 -1.90625 2.484375 -1.710938 2.671875 -1.578125 C 2.867188 -1.441406 3.109375 -1.375 3.390625 -1.375 C 3.660156 -1.375 3.890625 -1.441406 4.078125 -1.578125 C 4.273438 -1.710938 4.421875 -1.90625 4.515625 -2.15625 C 4.617188 -2.414062 4.671875 -2.726562 4.671875 -3.09375 Z M 4.671875 -3.09375 "/></g></g></g><g fill="#000000" fill-opacity="1"><g transform="translate(13.052093, 25.448391)"><g><path d="M 0.40625 0 L 0.40625 -6.1875 L 2.078125 -6.1875 L 2.078125 -1.359375 L 4.578125 -1.359375 L 4.578125 0 Z M 0.40625 0 "/></g></g></g><g fill="#000000" fill-opacity="1"><g transform="translate(17.914869, 25.448391)"><g><path d="M 4.0625 -6.1875 L 5.75 -6.1875 L 5.75 -2.21875 C 5.75 -1.75 5.632812 -1.34375 5.40625 -1 C 5.1875 -0.65625 4.875 -0.390625 4.46875 -0.203125 C 4.070312 -0.015625 3.609375 0.078125 3.078125 0.078125 C 2.535156 0.078125 2.0625 -0.015625 1.65625 -0.203125 C 1.257812 -0.390625 0.953125 -0.65625 0.734375 -1 C 0.515625 -1.34375 0.40625 -1.75 0.40625 -2.21875 L 0.40625 -6.1875 L 2.078125 -6.1875 L 2.078125 -2.375 C 2.078125 -2.175781 2.117188 -2.003906 2.203125 -1.859375 C 2.285156 -1.710938 2.398438 -1.59375 2.546875 -1.5 C 2.703125 -1.414062 2.878906 -1.375 3.078125 -1.375 C 3.265625 -1.375 3.429688 -1.414062 3.578125 -1.5 C 3.734375 -1.59375 3.851562 -1.710938 3.9375 -1.859375 C 4.019531 -2.003906 4.0625 -2.175781 4.0625 -2.375 Z M 4.0625 -6.1875 "/></g></g></g><g fill="#000000" fill-opacity="1"><g transform="translate(24.059874, 25.448391)"><g><path d="M 0.234375 -4.84375 L 0.234375 -6.1875 L 5.609375 -6.1875 L 5.609375 -4.84375 L 3.75 -4.84375 L 3.75 0 L 2.09375 0 L 2.09375 -4.84375 Z M 0.234375 -4.84375 "/></g></g></g><g fill="#000000" fill-opacity="1"><g transform="translate(29.902463, 25.448391)"><g><path d="M 2.078125 -6.1875 L 2.078125 0 L 0.40625 0 L 0.40625 -6.1875 Z M 2.078125 -6.1875 "/></g></g></g><g fill="#000000" fill-opacity="1"><g transform="translate(32.382239, 25.448391)"><g><path d="M 6.40625 -3.09375 C 6.40625 -2.40625 6.269531 -1.820312 6 -1.34375 C 5.726562 -0.875 5.363281 -0.519531 4.90625 -0.28125 C 4.457031 -0.0390625 3.953125 0.078125 3.390625 0.078125 C 2.828125 0.078125 2.316406 -0.0390625 1.859375 -0.28125 C 1.398438 -0.53125 1.035156 -0.890625 0.765625 -1.359375 C 0.503906 -1.828125 0.375 -2.40625 0.375 -3.09375 C 0.375 -3.78125 0.503906 -4.359375 0.765625 -4.828125 C 1.035156 -5.304688 1.398438 -5.664062 1.859375 -5.90625 C 2.316406 -6.15625 2.828125 -6.28125 3.390625 -6.28125 C 3.953125 -6.28125 4.457031 -6.15625 4.90625 -5.90625 C 5.363281 -5.664062 5.726562 -5.304688 6 -4.828125 C 6.269531 -4.359375 6.40625 -3.78125 6.40625 -3.09375 Z M 4.671875 -3.09375 C 4.671875 -3.46875 4.617188 -3.78125 4.515625 -4.03125 C 4.421875 -4.289062 4.273438 -4.484375 4.078125 -4.609375 C 3.890625 -4.742188 3.660156 -4.8125 3.390625 -4.8125 C 3.109375 -4.8125 2.867188 -4.742188 2.671875 -4.609375 C 2.484375 -4.484375 2.34375 -4.289062 2.25 -4.03125 C 2.15625 -3.78125 2.109375 -3.46875 2.109375 -3.09375 C 2.109375 -2.726562 2.15625 -2.414062 2.25 -2.15625 C 2.34375 -1.90625 2.484375 -1.710938 2.671875 -1.578125 C 2.867188 -1.441406 3.109375 -1.375 3.390625 -1.375 C 3.660156 -1.375 3.890625 -1.441406 4.078125 -1.578125 C 4.273438 -1.710938 4.421875 -1.90625 4.515625 -2.15625 C 4.617188 -2.414062 4.671875 -2.726562 4.671875 -3.09375 Z M 4.671875 -3.09375 "/></g></g></g><g fill="#000000" fill-opacity="1"><g transform="translate(39.156257, 25.448391)"><g><path d="M 5.765625 -6.1875 L 5.765625 0 L 4.359375 0 L 2.109375 -3.25 L 2.078125 -3.25 L 2.078125 0 L 0.40625 0 L 0.40625 -6.1875 L 1.828125 -6.1875 L 4.03125 -2.953125 L 4.078125 -2.953125 L 4.078125 -6.1875 Z M 5.765625 -6.1875 "/></g></g></g><g fill="#000000" fill-opacity="1"><g transform="translate(45.313358, 25.448391)"><g><path d="M 3.734375 -4.265625 C 3.722656 -4.460938 3.648438 -4.617188 3.515625 -4.734375 C 3.378906 -4.847656 3.175781 -4.90625 2.90625 -4.90625 C 2.726562 -4.90625 2.582031 -4.882812 2.46875 -4.84375 C 2.363281 -4.800781 2.285156 -4.742188 2.234375 -4.671875 C 2.179688 -4.597656 2.15625 -4.515625 2.15625 -4.421875 C 2.144531 -4.347656 2.15625 -4.28125 2.1875 -4.21875 C 2.21875 -4.164062 2.269531 -4.113281 2.34375 -4.0625 C 2.414062 -4.019531 2.503906 -3.976562 2.609375 -3.9375 C 2.710938 -3.894531 2.835938 -3.859375 2.984375 -3.828125 L 3.5 -3.71875 C 3.84375 -3.644531 4.132812 -3.550781 4.375 -3.4375 C 4.613281 -3.320312 4.8125 -3.179688 4.96875 -3.015625 C 5.125 -2.859375 5.238281 -2.679688 5.3125 -2.484375 C 5.382812 -2.285156 5.425781 -2.066406 5.4375 -1.828125 C 5.425781 -1.421875 5.320312 -1.078125 5.125 -0.796875 C 4.925781 -0.515625 4.640625 -0.296875 4.265625 -0.140625 C 3.890625 0.00390625 3.441406 0.078125 2.921875 0.078125 C 2.378906 0.078125 1.90625 0 1.5 -0.15625 C 1.101562 -0.320312 0.796875 -0.570312 0.578125 -0.90625 C 0.359375 -1.238281 0.242188 -1.660156 0.234375 -2.171875 L 1.84375 -2.171875 C 1.851562 -1.984375 1.898438 -1.820312 1.984375 -1.6875 C 2.066406 -1.5625 2.1875 -1.46875 2.34375 -1.40625 C 2.5 -1.34375 2.679688 -1.3125 2.890625 -1.3125 C 3.066406 -1.3125 3.210938 -1.332031 3.328125 -1.375 C 3.453125 -1.414062 3.546875 -1.472656 3.609375 -1.546875 C 3.671875 -1.628906 3.707031 -1.722656 3.71875 -1.828125 C 3.707031 -1.921875 3.671875 -2.003906 3.609375 -2.078125 C 3.554688 -2.148438 3.460938 -2.210938 3.328125 -2.265625 C 3.191406 -2.328125 3.007812 -2.382812 2.78125 -2.4375 L 2.171875 -2.5625 C 1.617188 -2.6875 1.179688 -2.882812 0.859375 -3.15625 C 0.546875 -3.4375 0.394531 -3.820312 0.40625 -4.3125 C 0.394531 -4.695312 0.492188 -5.035156 0.703125 -5.328125 C 0.921875 -5.628906 1.21875 -5.863281 1.59375 -6.03125 C 1.976562 -6.195312 2.414062 -6.28125 2.90625 -6.28125 C 3.40625 -6.28125 3.835938 -6.195312 4.203125 -6.03125 C 4.566406 -5.863281 4.847656 -5.625 5.046875 -5.3125 C 5.242188 -5.007812 5.34375 -4.660156 5.34375 -4.265625 Z M 3.734375 -4.265625 "/></g></g></g></svg>