<svg xmlns="http://www.w3.org/2000/svg" xmlns:xlink="http://www.w3.org/1999/xlink" width="150" zoomAndPan="magnify" viewBox="0 0 112.5 44.999999" height="60" preserveAspectRatio="xMidYMid meet" version="1.0"><defs><g/></defs><g fill="#0a57a1" fill-opacity="1"><g transform="translate(0, 23.74447)"><g><path d="M 10.921875 -12.4375 C 10.878906 -13.03125 10.660156 -13.488281 10.265625 -13.8125 C 9.867188 -14.144531 9.273438 -14.3125 8.484375 -14.3125 C 7.972656 -14.3125 7.554688 -14.25 7.234375 -14.125 C 6.921875 -14.007812 6.6875 -13.847656 6.53125 -13.640625 C 6.375 -13.441406 6.296875 -13.207031 6.296875 -12.9375 C 6.285156 -12.71875 6.320312 -12.519531 6.40625 -12.34375 C 6.5 -12.175781 6.644531 -12.019531 6.84375 -11.875 C 7.050781 -11.738281 7.3125 -11.613281 7.625 -11.5 C 7.9375 -11.394531 8.304688 -11.296875 8.734375 -11.203125 L 10.21875 -10.890625 C 11.21875 -10.679688 12.070312 -10.398438 12.78125 -10.046875 C 13.5 -9.703125 14.082031 -9.296875 14.53125 -8.828125 C 14.988281 -8.359375 15.320312 -7.832031 15.53125 -7.25 C 15.75 -6.664062 15.863281 -6.03125 15.875 -5.34375 C 15.863281 -4.144531 15.5625 -3.132812 14.96875 -2.3125 C 14.382812 -1.488281 13.546875 -0.859375 12.453125 -0.421875 C 11.359375 0.00390625 10.046875 0.21875 8.515625 0.21875 C 6.941406 0.21875 5.570312 -0.015625 4.40625 -0.484375 C 3.238281 -0.953125 2.332031 -1.671875 1.6875 -2.640625 C 1.039062 -3.609375 0.710938 -4.847656 0.703125 -6.359375 L 5.375 -6.359375 C 5.40625 -5.804688 5.539062 -5.34375 5.78125 -4.96875 C 6.03125 -4.59375 6.378906 -4.304688 6.828125 -4.109375 C 7.285156 -3.910156 7.828125 -3.8125 8.453125 -3.8125 C 8.972656 -3.8125 9.410156 -3.875 9.765625 -4 C 10.117188 -4.132812 10.382812 -4.316406 10.5625 -4.546875 C 10.75 -4.773438 10.847656 -5.039062 10.859375 -5.34375 C 10.847656 -5.613281 10.753906 -5.851562 10.578125 -6.0625 C 10.410156 -6.269531 10.128906 -6.457031 9.734375 -6.625 C 9.335938 -6.800781 8.800781 -6.960938 8.125 -7.109375 L 6.328125 -7.5 C 4.722656 -7.84375 3.457031 -8.421875 2.53125 -9.234375 C 1.613281 -10.054688 1.160156 -11.175781 1.171875 -12.59375 C 1.160156 -13.738281 1.460938 -14.742188 2.078125 -15.609375 C 2.703125 -16.472656 3.566406 -17.144531 4.671875 -17.625 C 5.785156 -18.101562 7.054688 -18.34375 8.484375 -18.34375 C 9.941406 -18.34375 11.203125 -18.097656 12.265625 -17.609375 C 13.335938 -17.117188 14.164062 -16.429688 14.75 -15.546875 C 15.332031 -14.660156 15.625 -13.625 15.625 -12.4375 Z M 10.921875 -12.4375 "/></g></g></g><g fill="#0a57a1" fill-opacity="1"><g transform="translate(16.578637, 23.74447)"><g><path d="M 0.671875 -14.140625 L 0.671875 -18.109375 L 16.40625 -18.109375 L 16.40625 -14.140625 L 10.953125 -14.140625 L 10.953125 0 L 6.109375 0 L 6.109375 -14.140625 Z M 0.671875 -14.140625 "/></g></g></g><g fill="#0a57a1" fill-opacity="1"><g transform="translate(33.65216, 23.74447)"><g><path d="M 1.171875 0 L 1.171875 -18.109375 L 14.21875 -18.109375 L 14.21875 -14.140625 L 6.078125 -14.140625 L 6.078125 -11.03125 L 13.546875 -11.03125 L 13.546875 -7.078125 L 6.078125 -7.078125 L 6.078125 -3.953125 L 14.171875 -3.953125 L 14.171875 0 Z M 1.171875 0 "/></g></g></g><g fill="#0a57a1" fill-opacity="1"><g transform="translate(49.134975, 23.74447)"><g><path d="M 1.171875 0 L 1.171875 -18.109375 L 8.984375 -18.109375 C 10.328125 -18.109375 11.5 -17.84375 12.5 -17.3125 C 13.507812 -16.78125 14.296875 -16.03125 14.859375 -15.0625 C 15.421875 -14.101562 15.703125 -12.984375 15.703125 -11.703125 C 15.703125 -10.410156 15.410156 -9.285156 14.828125 -8.328125 C 14.253906 -7.378906 13.453125 -6.648438 12.421875 -6.140625 C 11.390625 -5.628906 10.179688 -5.375 8.796875 -5.375 L 4.140625 -5.375 L 4.140625 -9.1875 L 7.8125 -9.1875 C 8.394531 -9.1875 8.890625 -9.285156 9.296875 -9.484375 C 9.703125 -9.691406 10.015625 -9.984375 10.234375 -10.359375 C 10.460938 -10.742188 10.578125 -11.191406 10.578125 -11.703125 C 10.578125 -12.222656 10.460938 -12.664062 10.234375 -13.03125 C 10.015625 -13.394531 9.703125 -13.675781 9.296875 -13.875 C 8.890625 -14.070312 8.394531 -14.171875 7.8125 -14.171875 L 6.078125 -14.171875 L 6.078125 0 Z M 1.171875 0 "/></g></g></g><g fill="#000000" fill-opacity="1"><g transform="translate(0, 40.022124)"><g><path d="M 8.296875 -9.453125 C 8.265625 -9.898438 8.097656 -10.25 7.796875 -10.5 C 7.503906 -10.75 7.054688 -10.875 6.453125 -10.875 C 6.066406 -10.875 5.75 -10.828125 5.5 -10.734375 C 5.257812 -10.640625 5.078125 -10.515625 4.953125 -10.359375 C 4.835938 -10.203125 4.78125 -10.023438 4.78125 -9.828125 C 4.769531 -9.660156 4.796875 -9.507812 4.859375 -9.375 C 4.929688 -9.25 5.046875 -9.132812 5.203125 -9.03125 C 5.359375 -8.925781 5.550781 -8.828125 5.78125 -8.734375 C 6.019531 -8.648438 6.304688 -8.578125 6.640625 -8.515625 L 7.765625 -8.265625 C 8.523438 -8.109375 9.175781 -7.894531 9.71875 -7.625 C 10.257812 -7.363281 10.703125 -7.054688 11.046875 -6.703125 C 11.390625 -6.347656 11.640625 -5.945312 11.796875 -5.5 C 11.960938 -5.0625 12.050781 -4.582031 12.0625 -4.0625 C 12.050781 -3.15625 11.820312 -2.382812 11.375 -1.75 C 10.925781 -1.125 10.285156 -0.648438 9.453125 -0.328125 C 8.628906 -0.00390625 7.632812 0.15625 6.46875 0.15625 C 5.269531 0.15625 4.226562 -0.0195312 3.34375 -0.375 C 2.457031 -0.726562 1.769531 -1.269531 1.28125 -2 C 0.789062 -2.738281 0.539062 -3.679688 0.53125 -4.828125 L 4.078125 -4.828125 C 4.097656 -4.410156 4.203125 -4.054688 4.390625 -3.765625 C 4.578125 -3.484375 4.84375 -3.269531 5.1875 -3.125 C 5.53125 -2.976562 5.941406 -2.90625 6.421875 -2.90625 C 6.816406 -2.90625 7.148438 -2.953125 7.421875 -3.046875 C 7.691406 -3.148438 7.894531 -3.285156 8.03125 -3.453125 C 8.164062 -3.628906 8.238281 -3.832031 8.25 -4.0625 C 8.238281 -4.269531 8.164062 -4.453125 8.03125 -4.609375 C 7.90625 -4.765625 7.691406 -4.90625 7.390625 -5.03125 C 7.085938 -5.164062 6.679688 -5.285156 6.171875 -5.390625 L 4.8125 -5.6875 C 3.59375 -5.957031 2.628906 -6.398438 1.921875 -7.015625 C 1.222656 -7.640625 0.878906 -8.488281 0.890625 -9.5625 C 0.878906 -10.4375 1.109375 -11.203125 1.578125 -11.859375 C 2.054688 -12.515625 2.710938 -13.023438 3.546875 -13.390625 C 4.390625 -13.753906 5.359375 -13.9375 6.453125 -13.9375 C 7.554688 -13.9375 8.515625 -13.75 9.328125 -13.375 C 10.140625 -13.007812 10.765625 -12.488281 11.203125 -11.8125 C 11.640625 -11.132812 11.863281 -10.347656 11.875 -9.453125 Z M 8.296875 -9.453125 "/></g></g></g><g fill="#000000" fill-opacity="1"><g transform="translate(12.599041, 40.022124)"><g><path d="M 14.203125 -6.875 C 14.203125 -5.34375 13.90625 -4.050781 13.3125 -3 C 12.71875 -1.957031 11.914062 -1.164062 10.90625 -0.625 C 9.894531 -0.0820312 8.765625 0.1875 7.515625 0.1875 C 6.265625 0.1875 5.132812 -0.0820312 4.125 -0.625 C 3.113281 -1.164062 2.3125 -1.960938 1.71875 -3.015625 C 1.125 -4.066406 0.828125 -5.351562 0.828125 -6.875 C 0.828125 -8.40625 1.125 -9.691406 1.71875 -10.734375 C 2.3125 -11.785156 3.113281 -12.582031 4.125 -13.125 C 5.132812 -13.664062 6.265625 -13.9375 7.515625 -13.9375 C 8.765625 -13.9375 9.894531 -13.664062 10.90625 -13.125 C 11.914062 -12.582031 12.71875 -11.785156 13.3125 -10.734375 C 13.90625 -9.691406 14.203125 -8.40625 14.203125 -6.875 Z M 10.359375 -6.875 C 10.359375 -7.695312 10.25 -8.390625 10.03125 -8.953125 C 9.820312 -9.523438 9.503906 -9.957031 9.078125 -10.25 C 8.660156 -10.539062 8.140625 -10.6875 7.515625 -10.6875 C 6.898438 -10.6875 6.378906 -10.539062 5.953125 -10.25 C 5.535156 -9.957031 5.21875 -9.523438 5 -8.953125 C 4.78125 -8.390625 4.671875 -7.695312 4.671875 -6.875 C 4.671875 -6.050781 4.78125 -5.351562 5 -4.78125 C 5.21875 -4.21875 5.535156 -3.789062 5.953125 -3.5 C 6.378906 -3.207031 6.898438 -3.0625 7.515625 -3.0625 C 8.140625 -3.0625 8.660156 -3.207031 9.078125 -3.5 C 9.503906 -3.789062 9.820312 -4.21875 10.03125 -4.78125 C 10.25 -5.351562 10.359375 -6.050781 10.359375 -6.875 Z M 10.359375 -6.875 "/></g></g></g><g fill="#000000" fill-opacity="1"><g transform="translate(27.642673, 40.022124)"><g><path d="M 0.890625 0 L 0.890625 -13.75 L 4.625 -13.75 L 4.625 -3.015625 L 10.171875 -3.015625 L 10.171875 0 Z M 0.890625 0 "/></g></g></g><g fill="#000000" fill-opacity="1"><g transform="translate(38.441855, 40.022124)"><g><path d="M 9.03125 -13.75 L 12.75 -13.75 L 12.75 -4.9375 C 12.75 -3.894531 12.5 -2.988281 12 -2.21875 C 11.507812 -1.457031 10.816406 -0.867188 9.921875 -0.453125 C 9.035156 -0.046875 8.003906 0.15625 6.828125 0.15625 C 5.640625 0.15625 4.597656 -0.046875 3.703125 -0.453125 C 2.816406 -0.867188 2.125 -1.457031 1.625 -2.21875 C 1.132812 -2.988281 0.890625 -3.894531 0.890625 -4.9375 L 0.890625 -13.75 L 4.625 -13.75 L 4.625 -5.265625 C 4.625 -4.835938 4.71875 -4.457031 4.90625 -4.125 C 5.09375 -3.789062 5.351562 -3.53125 5.6875 -3.34375 C 6.019531 -3.15625 6.398438 -3.0625 6.828125 -3.0625 C 7.253906 -3.0625 7.628906 -3.15625 7.953125 -3.34375 C 8.285156 -3.53125 8.546875 -3.789062 8.734375 -4.125 C 8.929688 -4.457031 9.03125 -4.835938 9.03125 -5.265625 Z M 9.03125 -13.75 "/></g></g></g><g fill="#000000" fill-opacity="1"><g transform="translate(52.088581, 40.022124)"><g><path d="M 0.515625 -10.75 L 0.515625 -13.75 L 12.46875 -13.75 L 12.46875 -10.75 L 8.328125 -10.75 L 8.328125 0 L 4.640625 0 L 4.640625 -10.75 Z M 0.515625 -10.75 "/></g></g></g><g fill="#000000" fill-opacity="1"><g transform="translate(65.063709, 40.022124)"><g><path d="M 4.625 -13.75 L 4.625 0 L 0.890625 0 L 0.890625 -13.75 Z M 4.625 -13.75 "/></g></g></g><g fill="#000000" fill-opacity="1"><g transform="translate(70.570757, 40.022124)"><g><path d="M 14.203125 -6.875 C 14.203125 -5.34375 13.90625 -4.050781 13.3125 -3 C 12.71875 -1.957031 11.914062 -1.164062 10.90625 -0.625 C 9.894531 -0.0820312 8.765625 0.1875 7.515625 0.1875 C 6.265625 0.1875 5.132812 -0.0820312 4.125 -0.625 C 3.113281 -1.164062 2.3125 -1.960938 1.71875 -3.015625 C 1.125 -4.066406 0.828125 -5.351562 0.828125 -6.875 C 0.828125 -8.40625 1.125 -9.691406 1.71875 -10.734375 C 2.3125 -11.785156 3.113281 -12.582031 4.125 -13.125 C 5.132812 -13.664062 6.265625 -13.9375 7.515625 -13.9375 C 8.765625 -13.9375 9.894531 -13.664062 10.90625 -13.125 C 11.914062 -12.582031 12.71875 -11.785156 13.3125 -10.734375 C 13.90625 -9.691406 14.203125 -8.40625 14.203125 -6.875 Z M 10.359375 -6.875 C 10.359375 -7.695312 10.25 -8.390625 10.03125 -8.953125 C 9.820312 -9.523438 9.503906 -9.957031 9.078125 -10.25 C 8.660156 -10.539062 8.140625 -10.6875 7.515625 -10.6875 C 6.898438 -10.6875 6.378906 -10.539062 5.953125 -10.25 C 5.535156 -9.957031 5.21875 -9.523438 5 -8.953125 C 4.78125 -8.390625 4.671875 -7.695312 4.671875 -6.875 C 4.671875 -6.050781 4.78125 -5.351562 5 -4.78125 C 5.21875 -4.21875 5.535156 -3.789062 5.953125 -3.5 C 6.378906 -3.207031 6.898438 -3.0625 7.515625 -3.0625 C 8.140625 -3.0625 8.660156 -3.207031 9.078125 -3.5 C 9.503906 -3.789062 9.820312 -4.21875 10.03125 -4.78125 C 10.25 -5.351562 10.359375 -6.050781 10.359375 -6.875 Z M 10.359375 -6.875 "/></g></g></g><g fill="#000000" fill-opacity="1"><g transform="translate(85.614389, 40.022124)"><g><path d="M 12.78125 -13.75 L 12.78125 0 L 9.671875 0 L 4.703125 -7.21875 L 4.625 -7.21875 L 4.625 0 L 0.890625 0 L 0.890625 -13.75 L 4.0625 -13.75 L 8.9375 -6.546875 L 9.046875 -6.546875 L 9.046875 -13.75 Z M 12.78125 -13.75 "/></g></g></g><g fill="#000000" fill-opacity="1"><g transform="translate(99.287981, 40.022124)"><g><path d="M 8.296875 -9.453125 C 8.265625 -9.898438 8.097656 -10.25 7.796875 -10.5 C 7.503906 -10.75 7.054688 -10.875 6.453125 -10.875 C 6.066406 -10.875 5.75 -10.828125 5.5 -10.734375 C 5.257812 -10.640625 5.078125 -10.515625 4.953125 -10.359375 C 4.835938 -10.203125 4.78125 -10.023438 4.78125 -9.828125 C 4.769531 -9.660156 4.796875 -9.507812 4.859375 -9.375 C 4.929688 -9.25 5.046875 -9.132812 5.203125 -9.03125 C 5.359375 -8.925781 5.550781 -8.828125 5.78125 -8.734375 C 6.019531 -8.648438 6.304688 -8.578125 6.640625 -8.515625 L 7.765625 -8.265625 C 8.523438 -8.109375 9.175781 -7.894531 9.71875 -7.625 C 10.257812 -7.363281 10.703125 -7.054688 11.046875 -6.703125 C 11.390625 -6.347656 11.640625 -5.945312 11.796875 -5.5 C 11.960938 -5.0625 12.050781 -4.582031 12.0625 -4.0625 C 12.050781 -3.15625 11.820312 -2.382812 11.375 -1.75 C 10.925781 -1.125 10.285156 -0.648438 9.453125 -0.328125 C 8.628906 -0.00390625 7.632812 0.15625 6.46875 0.15625 C 5.269531 0.15625 4.226562 -0.0195312 3.34375 -0.375 C 2.457031 -0.726562 1.769531 -1.269531 1.28125 -2 C 0.789062 -2.738281 0.539062 -3.679688 0.53125 -4.828125 L 4.078125 -4.828125 C 4.097656 -4.410156 4.203125 -4.054688 4.390625 -3.765625 C 4.578125 -3.484375 4.84375 -3.269531 5.1875 -3.125 C 5.53125 -2.976562 5.941406 -2.90625 6.421875 -2.90625 C 6.816406 -2.90625 7.148438 -2.953125 7.421875 -3.046875 C 7.691406 -3.148438 7.894531 -3.285156 8.03125 -3.453125 C 8.164062 -3.628906 8.238281 -3.832031 8.25 -4.0625 C 8.238281 -4.269531 8.164062 -4.453125 8.03125 -4.609375 C 7.90625 -4.765625 7.691406 -4.90625 7.390625 -5.03125 C 7.085938 -5.164062 6.679688 -5.285156 6.171875 -5.390625 L 4.8125 -5.6875 C 3.59375 -5.957031 2.628906 -6.398438 1.921875 -7.015625 C 1.222656 -7.640625 0.878906 -8.488281 0.890625 -9.5625 C 0.878906 -10.4375 1.109375 -11.203125 1.578125 -11.859375 C 2.054688 -12.515625 2.710938 -13.023438 3.546875 -13.390625 C 4.390625 -13.753906 5.359375 -13.9375 6.453125 -13.9375 C 7.554688 -13.9375 8.515625 -13.75 9.328125 -13.375 C 10.140625 -13.007812 10.765625 -12.488281 11.203125 -11.8125 C 11.640625 -11.132812 11.863281 -10.347656 11.875 -9.453125 Z M 8.296875 -9.453125 "/></g></g></g></svg>