<svg xmlns="http://www.w3.org/2000/svg" xmlns:xlink="http://www.w3.org/1999/xlink" width="70" zoomAndPan="magnify" viewBox="0 0 52.5 30.000001" height="40" preserveAspectRatio="xMidYMid meet" version="1.0"><defs><g/></defs><g fill="#0a57a1" fill-opacity="1"><g transform="translate(1.183215, 20.322582)"><g><path d="M 8.28125 -9.4375 C 8.25 -9.882812 8.082031 -10.234375 7.78125 -10.484375 C 7.488281 -10.734375 7.039062 -10.859375 6.4375 -10.859375 C 6.050781 -10.859375 5.734375 -10.8125 5.484375 -10.71875 C 5.242188 -10.625 5.066406 -10.5 4.953125 -10.34375 C 4.835938 -10.1875 4.773438 -10.007812 4.765625 -9.8125 C 4.765625 -9.644531 4.796875 -9.492188 4.859375 -9.359375 C 4.929688 -9.234375 5.039062 -9.117188 5.1875 -9.015625 C 5.34375 -8.910156 5.539062 -8.8125 5.78125 -8.71875 C 6.019531 -8.632812 6.300781 -8.5625 6.625 -8.5 L 7.75 -8.25 C 8.507812 -8.09375 9.160156 -7.878906 9.703125 -7.609375 C 10.242188 -7.347656 10.6875 -7.039062 11.03125 -6.6875 C 11.375 -6.332031 11.625 -5.929688 11.78125 -5.484375 C 11.945312 -5.046875 12.03125 -4.566406 12.03125 -4.046875 C 12.03125 -3.140625 11.804688 -2.375 11.359375 -1.75 C 10.910156 -1.125 10.269531 -0.648438 9.4375 -0.328125 C 8.613281 -0.00390625 7.625 0.15625 6.46875 0.15625 C 5.269531 0.15625 4.226562 -0.015625 3.34375 -0.359375 C 2.457031 -0.710938 1.769531 -1.257812 1.28125 -2 C 0.789062 -2.738281 0.539062 -3.679688 0.53125 -4.828125 L 4.078125 -4.828125 C 4.097656 -4.410156 4.203125 -4.054688 4.390625 -3.765625 C 4.578125 -3.484375 4.84375 -3.265625 5.1875 -3.109375 C 5.53125 -2.960938 5.9375 -2.890625 6.40625 -2.890625 C 6.800781 -2.890625 7.132812 -2.9375 7.40625 -3.03125 C 7.675781 -3.132812 7.878906 -3.273438 8.015625 -3.453125 C 8.148438 -3.628906 8.222656 -3.828125 8.234375 -4.046875 C 8.222656 -4.253906 8.148438 -4.4375 8.015625 -4.59375 C 7.890625 -4.757812 7.675781 -4.90625 7.375 -5.03125 C 7.082031 -5.15625 6.679688 -5.273438 6.171875 -5.390625 L 4.796875 -5.6875 C 3.578125 -5.945312 2.617188 -6.382812 1.921875 -7 C 1.222656 -7.625 0.878906 -8.472656 0.890625 -9.546875 C 0.878906 -10.421875 1.109375 -11.179688 1.578125 -11.828125 C 2.054688 -12.484375 2.710938 -12.992188 3.546875 -13.359375 C 4.390625 -13.734375 5.351562 -13.921875 6.4375 -13.921875 C 7.539062 -13.921875 8.492188 -13.734375 9.296875 -13.359375 C 10.109375 -12.984375 10.734375 -12.457031 11.171875 -11.78125 C 11.617188 -11.113281 11.84375 -10.332031 11.84375 -9.4375 Z M 8.28125 -9.4375 "/></g></g></g><g fill="#0a57a1" fill-opacity="1"><g transform="translate(13.754985, 20.322582)"><g><path d="M 0.515625 -10.71875 L 0.515625 -13.734375 L 12.4375 -13.734375 L 12.4375 -10.71875 L 8.3125 -10.71875 L 8.3125 0 L 4.640625 0 L 4.640625 -10.71875 Z M 0.515625 -10.71875 "/></g></g></g><g fill="#0a57a1" fill-opacity="1"><g transform="translate(26.702029, 20.322582)"><g><path d="M 0.890625 0 L 0.890625 -13.734375 L 10.78125 -13.734375 L 10.78125 -10.71875 L 4.609375 -10.71875 L 4.609375 -8.359375 L 10.265625 -8.359375 L 10.265625 -5.359375 L 4.609375 -5.359375 L 4.609375 -3 L 10.75 -3 L 10.75 0 Z M 0.890625 0 "/></g></g></g><g fill="#0a57a1" fill-opacity="1"><g transform="translate(38.442826, 20.322582)"><g><path d="M 0.890625 0 L 0.890625 -13.734375 L 6.8125 -13.734375 C 7.832031 -13.734375 8.722656 -13.53125 9.484375 -13.125 C 10.242188 -12.71875 10.835938 -12.148438 11.265625 -11.421875 C 11.691406 -10.691406 11.90625 -9.84375 11.90625 -8.875 C 11.90625 -7.894531 11.6875 -7.039062 11.25 -6.3125 C 10.8125 -5.59375 10.203125 -5.039062 9.421875 -4.65625 C 8.640625 -4.269531 7.722656 -4.078125 6.671875 -4.078125 L 3.140625 -4.078125 L 3.140625 -6.96875 L 5.921875 -6.96875 C 6.359375 -6.96875 6.734375 -7.046875 7.046875 -7.203125 C 7.359375 -7.359375 7.597656 -7.578125 7.765625 -7.859375 C 7.929688 -8.148438 8.015625 -8.488281 8.015625 -8.875 C 8.015625 -9.269531 7.929688 -9.601562 7.765625 -9.875 C 7.597656 -10.15625 7.359375 -10.367188 7.046875 -10.515625 C 6.734375 -10.671875 6.359375 -10.75 5.921875 -10.75 L 4.609375 -10.75 L 4.609375 0 Z M 0.890625 0 "/></g></g></g></svg>